<svg width="284" height="71" viewBox="0 0 284 71" fill="none" xmlns="http://www.w3.org/2000/svg">
<g filter="url(#filter0_d_30_1381)">
<path d="M49.2577 37.6375L15 56L37.0924 15L49.2577 37.6375Z" fill="white"/>
<mask id="mask0_30_1381" style="mask-type:alpha" maskUnits="userSpaceOnUse" x="39" y="39" width="21" height="17">
<path d="M50.3535 39.5833L39.4814 45.4251L59.1222 55.9544L50.3535 39.5833Z" fill="#C28F2C"/>
</mask>
<g mask="url(#mask0_30_1381)">
<rect x="37.3636" y="35.4998" width="26.0909" height="26.0909" fill="#FF5C00"/>
</g>
</g>
<path d="M88.1978 30.952H92.4708V45.8262H88.1978V44.0667C87.8331 44.6778 87.2416 45.1756 86.4235 45.56C85.6152 45.9346 84.7429 46.1219 83.8065 46.1219C82.5349 46.1219 81.3669 45.7769 80.3023 45.0869C79.2378 44.3969 78.3999 43.4605 77.7888 42.2777C77.1777 41.085 76.8721 39.7838 76.8721 38.3743C76.8721 36.2255 77.5424 34.4019 78.8829 32.9037C80.2333 31.4054 81.8745 30.6563 83.8065 30.6563C84.733 30.6563 85.6054 30.8485 86.4235 31.2329C87.2416 31.6173 87.8331 32.1102 88.1978 32.7115V30.952ZM84.7528 42.0707C85.4723 42.0707 86.1426 41.8982 86.7636 41.5532C87.3944 41.2082 87.8725 40.7646 88.1978 40.2225V36.5853C87.8725 36.0234 87.3944 35.5651 86.7636 35.2102C86.1426 34.8554 85.4723 34.6779 84.7528 34.6779C83.7079 34.6779 82.8306 35.0328 82.1209 35.7425C81.4112 36.4423 81.0564 37.3196 81.0564 38.3743C81.0564 39.429 81.4112 40.3112 82.1209 41.0209C82.8306 41.7207 83.7079 42.0707 84.7528 42.0707ZM109.637 41.8637C109.075 43.1549 108.163 44.1899 106.901 44.9686C105.64 45.7375 104.22 46.1219 102.643 46.1219C100.415 46.1219 98.5525 45.3875 97.0543 43.9188C95.5659 42.4502 94.8217 40.6118 94.8217 38.4039C94.8217 36.1959 95.5659 34.3526 97.0543 32.8741C98.5525 31.3956 100.415 30.6563 102.643 30.6563C104.082 30.6563 105.378 30.9865 106.532 31.6469C107.695 32.3073 108.577 33.1994 109.178 34.3231L105.571 36.3783C105.295 35.8657 104.895 35.4665 104.373 35.1806C103.861 34.8849 103.284 34.7371 102.643 34.7371C101.588 34.7371 100.716 35.087 100.026 35.7868C99.346 36.4867 99.0059 37.359 99.0059 38.4039C99.0059 39.4388 99.346 40.3063 100.026 41.0061C100.716 41.6961 101.588 42.0411 102.643 42.0411C103.363 42.0411 104.003 41.8785 104.565 41.5532C105.137 41.218 105.566 40.7548 105.852 40.1633L109.637 41.8637ZM119.573 30.6563C120.332 30.6563 120.938 30.745 121.391 30.9224L121.14 34.9293C120.509 34.7026 119.873 34.5892 119.232 34.5892C118.7 34.5892 118.109 34.7962 117.458 35.2102C116.818 35.6143 116.33 36.1565 115.994 36.8366V45.8262H111.721V30.952H115.994V32.7115C116.339 32.1003 116.857 31.6075 117.547 31.2329C118.247 30.8485 118.922 30.6563 119.573 30.6563ZM133.367 30.952H137.966L129.701 50.7645H125.132L127.882 44.6138L122.16 30.952H126.773L130.07 39.6458L133.367 30.952ZM144.486 46.1219C141.785 46.1219 139.562 45.5009 137.818 44.2589L139.089 41.287C140.489 42.3319 142.165 42.8543 144.116 42.8543C144.777 42.8543 145.304 42.7409 145.698 42.5142C146.103 42.2875 146.305 41.9967 146.305 41.6419C146.305 41.3363 146.152 41.085 145.846 40.8878C145.551 40.6808 145.166 40.5182 144.693 40.3999C144.22 40.2816 143.697 40.1633 143.126 40.0451C142.554 39.9169 141.982 39.7543 141.411 39.5571C140.839 39.3501 140.317 39.0988 139.843 38.8031C139.37 38.4975 138.981 38.0737 138.675 37.5315C138.38 36.9795 138.227 36.3339 138.217 35.5946C138.197 34.1949 138.749 33.022 139.873 32.0757C140.997 31.1294 142.431 30.6563 144.176 30.6563C146.531 30.6563 148.419 31.2231 149.838 32.3566L148.626 35.4468C148.035 35.0032 147.31 34.6336 146.453 34.3379C145.605 34.0422 144.787 33.8943 143.998 33.8943C143.456 33.8943 143.017 34.0077 142.682 34.2344C142.347 34.4611 142.18 34.742 142.18 35.0771C142.18 35.3334 142.298 35.5601 142.534 35.7573C142.771 35.9446 143.076 36.0973 143.451 36.2156C143.835 36.3339 144.269 36.467 144.752 36.6148C145.245 36.7528 145.743 36.8908 146.246 37.0288C146.748 37.1668 147.241 37.359 147.724 37.6055C148.217 37.8519 148.656 38.1328 149.04 38.4482C149.424 38.7538 149.735 39.1579 149.971 39.6606C150.218 40.1633 150.346 40.735 150.356 41.3757C150.356 42.7557 149.804 43.8942 148.7 44.7912C147.606 45.6783 146.201 46.1219 144.486 46.1219ZM169.518 30.952H173.791V45.8262H169.518V44.0667C169.153 44.6778 168.562 45.1756 167.744 45.56C166.935 45.9346 166.063 46.1219 165.127 46.1219C163.855 46.1219 162.687 45.7769 161.622 45.0869C160.558 44.3969 159.72 43.4605 159.109 42.2777C158.498 41.085 158.192 39.7838 158.192 38.3743C158.192 36.2255 158.862 34.4019 160.203 32.9037C161.553 31.4054 163.195 30.6563 165.127 30.6563C166.053 30.6563 166.925 30.8485 167.744 31.2329C168.562 31.6173 169.153 32.1102 169.518 32.7115V30.952ZM166.073 42.0707C166.792 42.0707 167.463 41.8982 168.084 41.5532C168.714 41.2082 169.193 40.7646 169.518 40.2225V36.5853C169.193 36.0234 168.714 35.5651 168.084 35.2102C167.463 34.8554 166.792 34.6779 166.073 34.6779C165.028 34.6779 164.151 35.0328 163.441 35.7425C162.731 36.4423 162.376 37.3196 162.376 38.3743C162.376 39.429 162.731 40.3112 163.441 41.0209C164.151 41.7207 165.028 42.0707 166.073 42.0707ZM185.117 30.6563C186.989 30.6563 188.463 31.2625 189.537 32.4749C190.622 33.6774 191.164 35.3236 191.164 37.4132V45.8262H186.891V38.1377C186.891 37.1225 186.634 36.329 186.122 35.7573C185.609 35.1856 184.91 34.8997 184.022 34.8997C183.431 34.8997 182.864 35.0525 182.322 35.3581C181.78 35.6636 181.356 36.0727 181.051 36.5853V45.8262H176.778V30.952H181.051V32.7115C181.455 32.0806 182.021 31.5828 182.751 31.2181C183.49 30.8436 184.279 30.6563 185.117 30.6563ZM204.855 30.952H209.128V45.8262H204.855V44.0667C204.49 44.6778 203.899 45.1756 203.081 45.56C202.273 45.9346 201.4 46.1219 200.464 46.1219C199.192 46.1219 198.024 45.7769 196.96 45.0869C195.895 44.3969 195.057 43.4605 194.446 42.2777C193.835 41.085 193.529 39.7838 193.529 38.3743C193.529 36.2255 194.2 34.4019 195.54 32.9037C196.891 31.4054 198.532 30.6563 200.464 30.6563C201.39 30.6563 202.263 30.8485 203.081 31.2329C203.899 31.6173 204.49 32.1102 204.855 32.7115V30.952ZM201.41 42.0707C202.13 42.0707 202.8 41.8982 203.421 41.5532C204.052 41.2082 204.53 40.7646 204.855 40.2225V36.5853C204.53 36.0234 204.052 35.5651 203.421 35.2102C202.8 34.8554 202.13 34.6779 201.41 34.6779C200.365 34.6779 199.488 35.0328 198.778 35.7425C198.069 36.4423 197.714 37.3196 197.714 38.3743C197.714 39.429 198.069 40.3112 198.778 41.0209C199.488 41.7207 200.365 42.0707 201.41 42.0707ZM216.388 24.6238V45.8262H212.115V24.6238H216.388ZM229.355 30.952H233.953L225.688 50.7645H221.119L223.869 44.6138L218.147 30.952H222.76L226.057 39.6458L229.355 30.952ZM245.131 41.8637L245.353 45.6487C244.781 45.9247 244.051 46.0627 243.164 46.0627C241.39 46.0627 239.956 45.5305 238.862 44.4659C237.777 43.3915 237.235 41.908 237.235 40.0155V35.018H234.47V30.952H237.235V27.0486H241.508V30.952H245.16V35.018H241.508V39.7937C241.508 40.4738 241.73 41.0258 242.174 41.4497C242.617 41.8637 243.159 42.0707 243.8 42.0707C244.293 42.0707 244.736 42.0017 245.131 41.8637ZM248.014 24.5203C248.526 24.0077 249.138 23.7515 249.847 23.7515C250.557 23.7515 251.168 24.0077 251.681 24.5203C252.193 25.023 252.45 25.6243 252.45 26.3241C252.45 27.0338 252.193 27.645 251.681 28.1575C251.168 28.6701 250.557 28.9264 249.847 28.9264C249.138 28.9264 248.526 28.6701 248.014 28.1575C247.501 27.645 247.245 27.0338 247.245 26.3241C247.245 25.6243 247.501 25.023 248.014 24.5203ZM247.718 30.952H251.991V45.8262H247.718V30.952ZM269.201 41.8637C268.64 43.1549 267.728 44.1899 266.466 44.9686C265.204 45.7375 263.785 46.1219 262.208 46.1219C259.98 46.1219 258.117 45.3875 256.619 43.9188C255.131 42.4502 254.386 40.6118 254.386 38.4039C254.386 36.1959 255.131 34.3526 256.619 32.8741C258.117 31.3956 259.98 30.6563 262.208 30.6563C263.647 30.6563 264.943 30.9865 266.097 31.6469C267.26 32.3073 268.142 33.1994 268.743 34.3231L265.135 36.3783C264.859 35.8657 264.46 35.4665 263.938 35.1806C263.425 34.8849 262.849 34.7371 262.208 34.7371C261.153 34.7371 260.281 35.087 259.591 35.7868C258.911 36.4867 258.571 37.359 258.571 38.4039C258.571 39.4388 258.911 40.3063 259.591 41.0061C260.281 41.6961 261.153 42.0411 262.208 42.0411C262.927 42.0411 263.568 41.8785 264.13 41.5532C264.702 41.218 265.131 40.7548 265.416 40.1633L269.201 41.8637ZM277.171 46.1219C274.47 46.1219 272.247 45.5009 270.503 44.2589L271.774 41.287C273.174 42.3319 274.85 42.8543 276.801 42.8543C277.462 42.8543 277.989 42.7409 278.383 42.5142C278.787 42.2875 278.989 41.9967 278.989 41.6419C278.989 41.3363 278.837 41.085 278.531 40.8878C278.235 40.6808 277.851 40.5182 277.378 40.3999C276.905 40.2816 276.382 40.1633 275.811 40.0451C275.239 39.9169 274.667 39.7543 274.095 39.5571C273.524 39.3501 273.001 39.0988 272.528 38.8031C272.055 38.4975 271.666 38.0737 271.36 37.5315C271.064 36.9795 270.912 36.3339 270.902 35.5946C270.882 34.1949 271.434 33.022 272.558 32.0757C273.681 31.1294 275.116 30.6563 276.86 30.6563C279.216 30.6563 281.104 31.2231 282.523 32.3566L281.311 35.4468C280.719 35.0032 279.995 34.6336 279.137 34.3379C278.29 34.0422 277.471 33.8943 276.683 33.8943C276.141 33.8943 275.702 34.0077 275.367 34.2344C275.032 34.4611 274.864 34.742 274.864 35.0771C274.864 35.3334 274.983 35.5601 275.219 35.7573C275.456 35.9446 275.761 36.0973 276.136 36.2156C276.52 36.3339 276.954 36.467 277.437 36.6148C277.93 36.7528 278.428 36.8908 278.93 37.0288C279.433 37.1668 279.926 37.359 280.409 37.6055C280.902 37.8519 281.34 38.1328 281.725 38.4482C282.109 38.7538 282.42 39.1579 282.656 39.6606C282.903 40.1633 283.031 40.735 283.041 41.3757C283.041 42.7557 282.489 43.8942 281.385 44.7912C280.291 45.6783 278.886 46.1219 277.171 46.1219Z" fill="white"/>
<defs>
<filter id="filter0_d_30_1381" x="0.674606" y="0.674606" width="72.773" height="69.6508" filterUnits="userSpaceOnUse" color-interpolation-filters="sRGB">
<feFlood flood-opacity="0" result="BackgroundImageFix"/>
<feColorMatrix in="SourceAlpha" type="matrix" values="0 0 0 0 0 0 0 0 0 0 0 0 0 0 0 0 0 0 127 0" result="hardAlpha"/>
<feOffset/>
<feGaussianBlur stdDeviation="7.1627"/>
<feComposite in2="hardAlpha" operator="out"/>
<feColorMatrix type="matrix" values="0 0 0 0 0 0 0 0 0 0 0 0 0 0 0 0 0 0 0.2 0"/>
<feBlend mode="normal" in2="BackgroundImageFix" result="effect1_dropShadow_30_1381"/>
<feBlend mode="normal" in="SourceGraphic" in2="effect1_dropShadow_30_1381" result="shape"/>
</filter>
</defs>
</svg>
