<svg width="31" height="41" viewBox="0 0 31 41" fill="none" xmlns="http://www.w3.org/2000/svg">
<path d="M15.7343 24.373C6.64452 24.373 6.18262 27.8789 2.74878 36.0596C1.25109 39.5828 2.98662 40.191 15.7343 39.9551C28.4819 40.191 30.2165 39.5828 28.7189 36.0596C25.285 27.8789 24.8236 24.373 15.7343 24.373Z" fill="white" stroke="white" stroke-width="1.29851"/>
<circle cx="15.8648" cy="12.6865" r="7.79103" fill="white"/>
<path d="M5.47746 15.2836C5.47746 16.5821 2.88045 16.5821 2.88045 15.2836C2.88013 6.84327 8.0733 1 15.8647 1C23.656 1 28.1999 6.84327 28.1996 15.2836C28.1996 16.5821 25.6034 16.5821 25.6034 15.2836C25.6034 6.84327 21.0587 3.59701 15.8647 3.59701C10.6706 3.59701 5.47746 6.84327 5.47746 15.2836Z" fill="#FF5C00"/>
<path d="M5.47746 15.2836C5.47746 16.5821 2.88045 16.5821 2.88045 15.2836C2.88013 6.84327 8.0733 1 15.8647 1C23.656 1 28.1999 6.84327 28.1996 15.2836C28.1996 16.5821 25.6034 16.5821 25.6034 15.2836M5.47746 15.2836C5.47746 6.84327 10.6706 3.59701 15.8647 3.59701C21.0587 3.59701 25.6034 6.84327 25.6034 15.2836M5.47746 15.2836C5.47714 17.8806 6.77511 21.7761 1.58107 20.4776C0.931003 20.4776 0.282334 13.9851 2.88013 13.9851M25.6034 15.2836C25.6038 17.8806 24.3049 21.7761 29.499 20.4776C30.149 20.4776 30.7977 13.9851 28.1999 13.9851" stroke="#FF5C00" stroke-width="1.29851"/>
<path d="M25.6035 18.5299C23.3764 20.4115 21.7079 21.1269 16.5139 21.1269" stroke="#FF5C00" stroke-width="1.29851"/>
<rect x="13.2676" y="19.1791" width="5.19402" height="2.59701" rx="1.29851" fill="#FF5C00"/>
<rect x="1" y="13.9851" width="5.19402" height="6.49253" rx="2.59701" fill="#FF5C00"/>
<rect x="25.6716" y="13.9851" width="3.89552" height="6.49253" rx="1.94776" fill="#FF5C00"/>
</svg>
