<svg width="118" height="118" viewBox="0 0 118 118" fill="none" xmlns="http://www.w3.org/2000/svg">
<path d="M106.938 40.5625L118 51.625H84.8125L66.375 33.1875V0L77.4375 11.0625V29.5L88.5 40.5625H106.938Z" fill="black"/>
<path d="M106.938 77.4375L118 66.375H84.8125L66.375 84.8125V118L77.4375 106.938V88.5L88.5 77.4375H106.938Z" fill="black"/>
<path d="M0 51.625L11.0625 40.5625H29.5L40.5625 29.5V11.0625L51.625 0V33.1875L33.1875 51.625H0Z" fill="black"/>
<path d="M0 66.375L11.0625 77.4375H29.5L40.5625 88.5V106.938L51.625 118V84.8125L33.1875 66.375H0Z" fill="black"/>
<path d="M44.25 59L59 73.75L73.75 59L59 44.25L44.25 59Z" fill="#FF5C00"/>
<path d="M11.0625 99.5625L31.3438 79.2812L29.5 77.4375H18.4375L11.0625 84.8125V99.5625Z" fill="#D6D6D6"/>
<path d="M40.5625 88.5L38.7188 86.6562L18.4375 106.938H33.1875L40.5625 99.5625V88.5Z" fill="#D6D6D6"/>
<path d="M11.0625 18.4375L31.3438 38.7188L29.5 40.5625H18.4375L11.0625 33.1875V18.4375Z" fill="#D6D6D6"/>
<path d="M40.5625 29.5L38.7188 31.3438L18.4375 11.0625H33.1875L40.5625 18.4375V29.5Z" fill="#D6D6D6"/>
<path d="M106.938 18.4375L86.6562 38.7188L88.5 40.5625H99.5625L106.938 33.1875V18.4375Z" fill="#D6D6D6"/>
<path d="M77.4375 29.5L79.2812 31.3438L99.5625 11.0625H84.8125L77.4375 18.4375V29.5Z" fill="#D6D6D6"/>
<path d="M86.6562 79.2812L106.938 99.5625V84.8125L99.5625 77.4375H88.5L86.6562 79.2812Z" fill="#D6D6D6"/>
<path d="M79.2812 86.6562L77.4375 88.5V99.5625L84.8125 106.938H99.5625L79.2812 86.6562Z" fill="#D6D6D6"/>
</svg>
