<svg width="49" height="41" viewBox="0 0 49 41" fill="none" xmlns="http://www.w3.org/2000/svg">
<path d="M7.02588 11.2601C10.6077 16.2474 11.9193 19.6359 11.8247 27.7453C17.1721 31.6483 20.1389 34.1035 25.2111 40.3875C29.9011 29.5191 24.2908 14.2109 14.2581 1.21051C18.08 9.54988 18.8984 14.0196 18.4557 21.6953C15.6325 16.326 12.9433 14.1888 7.02588 11.2601Z" fill="#FF5C00"/>
<path d="M42.2692 11.2573C34.0872 15.8606 30.3001 23.4813 30.4692 34.2183L37.5152 27.9696C37.4143 20.4889 38.704 16.9512 42.2692 11.2573Z" fill="#FF5C00"/>
<path d="M28.9006 25.4515C28.5366 22.3346 27.8565 20.3854 25.8471 16.5709C28.1674 9.0902 30.3692 5.65985 35.72 0.743652C31.6312 8.54015 30.5958 13.169 30.3001 22.1308C29.617 22.8275 29.2682 23.3702 28.9006 25.4515Z" fill="white"/>
</svg>
