<svg width="41" height="35" viewBox="0 0 41 35" fill="none" xmlns="http://www.w3.org/2000/svg">
<path d="M5.55275 9.98075C8.62193 14.2542 9.74575 17.1577 9.66474 24.1064C14.2467 27.4508 16.7889 29.5546 21.1351 34.9391C25.1538 25.6263 20.3465 12.5092 11.7498 1.3696C15.0247 8.51533 15.726 12.3453 15.3466 18.9224C12.9275 14.3216 10.6232 12.4902 5.55275 9.98075Z" fill="#FF5C00"/>
<path d="M35.7516 9.97835C28.7408 13.9228 25.4957 20.4527 25.6406 29.6529L31.6781 24.2986C31.5916 17.8886 32.6968 14.8573 35.7516 9.97835Z" fill="#FF5C00"/>
<path d="M24.2965 22.1409C23.9846 19.4702 23.4019 17.7999 21.68 14.5314C23.6682 8.12145 25.5549 5.1821 30.1399 0.969559C26.6363 7.65013 25.749 11.6164 25.4957 19.2955C24.9103 19.8925 24.6115 20.3575 24.2965 22.1409Z" fill="black"/>
</svg>
