<svg width="41" height="34" viewBox="0 0 41 34" fill="none" xmlns="http://www.w3.org/2000/svg">
<path d="M5.55275 9.01119C8.62193 13.2847 9.74575 16.1881 9.66474 23.1369C14.2467 26.4812 16.7889 28.585 21.1351 33.9696C25.1538 24.6568 20.3465 11.5396 11.7498 0.400038C15.0247 7.54577 15.726 11.3757 15.3466 17.9528C12.9275 13.3521 10.6232 11.5207 5.55275 9.01119Z" fill="#FF5C00"/>
<path d="M35.7516 9.00879C28.7408 12.9532 25.4957 19.4832 25.6406 28.6834L31.6781 23.329C31.5916 16.9191 32.6968 13.8878 35.7516 9.00879Z" fill="#FF5C00"/>
<path d="M24.2965 21.1714C23.9846 18.5006 23.4019 16.8303 21.68 13.5619C23.6682 7.15189 25.5549 4.21254 30.1399 0C26.6363 6.68057 25.749 10.6469 25.4957 18.326C24.9103 18.923 24.6115 19.388 24.2965 21.1714Z" fill="white"/>
</svg>
