<svg id="visual" viewBox="0 0 2000 100" width="2000" height="100" xmlns="http://www.w3.org/2000/svg" xmlns:xlink="http://www.w3.org/1999/xlink" version="1.1"><path d="M0 49L87 44L174 65L261 39L348 54L435 71L522 52L609 22L696 56L783 62L870 58L957 29L1043 33L1130 17L1217 55L1304 46L1391 43L1478 15L1565 31L1652 70L1739 19L1826 39L1913 60L2000 47L2000 0L1913 0L1826 0L1739 0L1652 0L1565 0L1478 0L1391 0L1304 0L1217 0L1130 0L1043 0L957 0L870 0L783 0L696 0L609 0L522 0L435 0L348 0L261 0L174 0L87 0L0 0Z" fill="#252525"></path><path d="M0 11L87 50L174 29L261 44L348 15L435 13L522 40L609 36L696 37L783 39L870 44L957 27L1043 47L1130 57L1217 34L1304 51L1391 42L1478 16L1565 46L1652 44L1739 18L1826 18L1913 17L2000 50L2000 0L1913 0L1826 0L1739 0L1652 0L1565 0L1478 0L1391 0L1304 0L1217 0L1130 0L1043 0L957 0L870 0L783 0L696 0L609 0L522 0L435 0L348 0L261 0L174 0L87 0L0 0Z" fill="#1f1f1f"></path><path d="M0 35L87 22L174 43L261 41L348 41L435 29L522 10L609 20L696 32L783 25L870 21L957 15L1043 40L1130 37L1217 19L1304 16L1391 12L1478 40L1565 19L1652 40L1739 36L1826 18L1913 12L2000 38L2000 0L1913 0L1826 0L1739 0L1652 0L1565 0L1478 0L1391 0L1304 0L1217 0L1130 0L1043 0L957 0L870 0L783 0L696 0L609 0L522 0L435 0L348 0L261 0L174 0L87 0L0 0Z" fill="#191919"></path><path d="M0 8L87 5L174 26L261 7L348 28L435 22L522 20L609 15L696 13L783 29L870 8L957 12L1043 25L1130 17L1217 9L1304 26L1391 25L1478 20L1565 5L1652 14L1739 15L1826 20L1913 27L2000 17L2000 0L1913 0L1826 0L1739 0L1652 0L1565 0L1478 0L1391 0L1304 0L1217 0L1130 0L1043 0L957 0L870 0L783 0L696 0L609 0L522 0L435 0L348 0L261 0L174 0L87 0L0 0Z" fill="#121212"></path></svg>