<svg width="500" height="500" viewBox="0 0 500 500" fill="none" xmlns="http://www.w3.org/2000/svg">
<path d="M453.125 171.875L500 218.75H359.375L281.25 140.625V0L328.125 46.875V125L375 171.875H453.125Z" fill="white"/>
<path d="M453.125 328.125L500 281.25H359.375L281.25 359.375V500L328.125 453.125V375L375 328.125H453.125Z" fill="white"/>
<path d="M0 218.75L46.875 171.875H125L171.875 125V46.875L218.75 0V140.625L140.625 218.75H0Z" fill="white"/>
<path d="M0 281.25L46.875 328.125H125L171.875 375V453.125L218.75 500V359.375L140.625 281.25H0Z" fill="white"/>
<path d="M46.874 421.875L132.812 335.938L124.999 328.125H78.124L46.874 359.375V421.875Z" fill="#292929"/>
<path d="M171.874 375L164.062 367.188L78.124 453.125H140.624L171.874 421.875V375Z" fill="#292929"/>
<path d="M46.874 78.125L132.812 164.063L124.999 171.875H78.124L46.874 140.625V78.125Z" fill="#292929"/>
<path d="M171.874 125L164.062 132.813L78.124 46.875H140.624L171.874 78.125V125Z" fill="#292929"/>
<path d="M453.124 78.125L367.187 164.063L374.999 171.875H421.874L453.124 140.625V78.125Z" fill="#292929"/>
<path d="M328.124 125L335.937 132.813L421.874 46.875H359.374L328.124 78.125V125Z" fill="#292929"/>
<path d="M367.187 335.938L453.124 421.875V359.375L421.874 328.125H374.999L367.187 335.938Z" fill="#292929"/>
<path d="M335.937 367.188L328.124 375V421.875L359.374 453.125H421.874L335.937 367.188Z" fill="#292929"/>
</svg>
