<svg width="408" height="408" viewBox="0 0 408 408" fill="none" xmlns="http://www.w3.org/2000/svg">
<path d="M0.874023 375.875L86.8115 289.938L78.999 282.125H32.124L0.874023 313.375V375.875Z" fill="#292929"/>
<path d="M125.874 329L118.062 321.188L32.124 407.125H94.624L125.874 375.875V329Z" fill="#292929"/>
<path d="M0.874023 32.125L86.8115 118.063L78.999 125.875H32.124L0.874023 94.625V32.125Z" fill="#292929"/>
<path d="M125.874 79L118.062 86.8125L32.124 0.875031H94.624L125.874 32.125V79Z" fill="#292929"/>
<path d="M407.124 32.125L321.187 118.063L328.999 125.875H375.874L407.124 94.625V32.125Z" fill="#292929"/>
<path d="M282.124 79L289.937 86.8125L375.874 0.875031H313.374L282.124 32.125V79Z" fill="#292929"/>
<path d="M321.187 289.938L407.124 375.875V313.375L375.874 282.125H328.999L321.187 289.938Z" fill="#292929"/>
<path d="M289.937 321.188L282.124 329V375.875L313.374 407.125H375.874L289.937 321.188Z" fill="#292929"/>
</svg>
