<svg width="49" height="41" viewBox="0 0 49 41" fill="none" xmlns="http://www.w3.org/2000/svg">
<path d="M20.341 13.6554L17.2783 23.2767L10.5264 20.4801L14.7028 14.8868C8.35396 15.056 5.39105 13.5631 0.653809 9.44322L16.0717 9.44322L20.341 13.6554Z" fill="white"/>
<path d="M28.9305 13.6554L31.9442 23.2767L38.588 20.4801L34.4784 14.8868C40.7257 15.056 43.6412 13.5631 48.3027 9.44322L33.1314 9.44322L28.9305 13.6554Z" fill="white"/>
<path d="M24.6704 16.5518L23.3318 15.0593L19.0221 36.0475L24.6704 40.3851L30.2283 36.0475L25.9875 15.0593L24.6704 16.5518Z" fill="#FF5C00"/>
<path d="M24.6704 11.8747L17.5686 3.53372L19.1509 0.741216L24.6704 0.741216L30.1015 0.741206L31.6585 3.53371L24.6704 11.8747Z" fill="#FF5C00"/>
</svg>
