<svg width="41" height="34" viewBox="0 0 41 34" fill="none" xmlns="http://www.w3.org/2000/svg">
<path d="M16.7349 11.0658L14.1315 19.3099L8.39211 16.9136L11.9422 12.1209C6.54544 12.2659 4.02685 10.9867 0 7.45648H13.1058L16.7349 11.0658Z" fill="white"/>
<path d="M24.0363 11.0658L26.5981 19.3099L32.2456 16.9136L28.7523 12.1209C34.0627 12.2659 36.541 10.9866 40.5035 7.45647H27.6073L24.0363 11.0658Z" fill="white"/>
<path d="M20.415 13.5476L19.2772 12.2687L15.6138 30.2529L20.415 33.9696L25.1395 30.2528L21.5347 12.2687L20.415 13.5476Z" fill="#FF5C00"/>
<path d="M20.415 9.53997L14.3783 2.39281L15.7232 4.23174e-06H20.415L25.0318 -4.23174e-06L26.3552 2.39281L20.415 9.53997Z" fill="#FF5C00"/>
</svg>
