<svg width="41" height="35" viewBox="0 0 41 35" fill="none" xmlns="http://www.w3.org/2000/svg">
<path d="M16.7349 12.0353L14.1315 20.2795L8.39211 17.8831L11.9422 13.0905C6.54544 13.2354 4.02685 11.9562 0 8.42602H13.1058L16.7349 12.0353Z" fill="black"/>
<path d="M24.0363 12.0353L26.5981 20.2795L32.2456 17.8831L28.7523 13.0905C34.0627 13.2354 36.541 11.9562 40.5035 8.42602H27.6073L24.0363 12.0353Z" fill="black"/>
<path d="M20.415 14.5171L19.2772 13.2383L15.6138 31.2224L20.415 34.9391L25.1395 31.2224L21.5347 13.2383L20.415 14.5171Z" fill="#FF5C00"/>
<path d="M20.415 10.5095L14.3783 3.36236L15.7232 0.969548H20.415L25.0318 0.969539L26.3552 3.36235L20.415 10.5095Z" fill="#FF5C00"/>
</svg>
