<svg id="visual" viewBox="0 0 2000 125" width="2000" height="125" xmlns="http://www.w3.org/2000/svg" xmlns:xlink="http://www.w3.org/1999/xlink" version="1.1"><path d="M0 49L100 65L200 62L300 46L400 49L500 50L600 69L700 68L800 37L900 65L1000 68L1100 65L1200 45L1300 63L1400 64L1500 69L1600 58L1700 44L1800 49L1900 47L2000 39L2000 126L1900 126L1800 126L1700 126L1600 126L1500 126L1400 126L1300 126L1200 126L1100 126L1000 126L900 126L800 126L700 126L600 126L500 126L400 126L300 126L200 126L100 126L0 126Z" fill="#2d2d2d"></path><path d="M0 60L100 70L200 85L300 57L400 65L500 66L600 85L700 55L800 84L900 59L1000 79L1100 81L1200 68L1300 81L1400 79L1500 86L1600 65L1700 74L1800 70L1900 56L2000 62L2000 126L1900 126L1800 126L1700 126L1600 126L1500 126L1400 126L1300 126L1200 126L1100 126L1000 126L900 126L800 126L700 126L600 126L500 126L400 126L300 126L200 126L100 126L0 126Z" fill="#242424"></path><path d="M0 104L100 72L200 84L300 83L400 79L500 100L600 77L700 82L800 78L900 104L1000 84L1100 85L1200 72L1300 79L1400 87L1500 99L1600 72L1700 87L1800 75L1900 90L2000 101L2000 126L1900 126L1800 126L1700 126L1600 126L1500 126L1400 126L1300 126L1200 126L1100 126L1000 126L900 126L800 126L700 126L600 126L500 126L400 126L300 126L200 126L100 126L0 126Z" fill="#1b1b1b"></path><path d="M0 120L100 121L200 109L300 100L400 119L500 118L600 116L700 121L800 105L900 121L1000 113L1100 118L1200 115L1300 95L1400 95L1500 110L1600 124L1700 108L1800 106L1900 89L2000 111L2000 126L1900 126L1800 126L1700 126L1600 126L1500 126L1400 126L1300 126L1200 126L1100 126L1000 126L900 126L800 126L700 126L600 126L500 126L400 126L300 126L200 126L100 126L0 126Z" fill="#121212"></path></svg>